# xmcd
# 
# Track frame offsets:
#     150
#     16670
#     37616
#     54555
#     74143
#     98130
#     121941
#     139891
#     166934
#     197683
#     214885
#     237954
#     261234
#     291126
# 
# Disc length: 4197
# 
# Revision: 1
# Processed by: cddbd v1.5.2PL0 Copyright (c) Steve Scherf et al.
# Submitted via: BonkEnc v1.0.15
# 
DISCID=c810630e
DTITLE=Agatha Christie - und dann gabs keines mehr CD3
DYEAR=2003
DGENRE=Speech
TTITLE0=34 Und, zufrieden ? fragte Lombard ..
TTITLE1=35 Sorgfältig durchkämmten sie das Haus ...
TTITLE2=36 Um zwanzig Minuten nach sechs hatte Vera ...
TTITLE3=37 Einen Moment herrschte Stille ...
TTITLE4=38 Sie hatten Richter Wargrave in sein Zimmer getragen ...
TTITLE5=39 Ex-Inspekor Blore sass auf seiner Bettkante ...
TTITLE6=40 Vera erhob sich und zog sich an ...
TTITLE7=41 Sie verbrachten den Vormittag auf den Klippen...
TTITLE8=42 Eine Ewigkeit schien zu vergehen ...
TTITLE9=43 Sir Thomas Legg rief ...
TTITLE10=44 Ein handgeschriebenes Manuskript ...
TTITLE11=45 Und so begann ich heimlich ...
TTITLE12=46 Die Reihenfolge der Todesfälle ...
TTITLE13=47 Ich habe vergessen zu erzählen ...
EXTD=gelesen von Christian Hoening
EXTT0=
EXTT1=
EXTT2=
EXTT3=
EXTT4=
EXTT5=
EXTT6=
EXTT7=
EXTT8=
EXTT9=
EXTT10=
EXTT11=
EXTT12=
EXTT13=
PLAYORDER=
